<svg xmlns="http://www.w3.org/2000/svg" width="39" height="42" viewBox="0 0 39 42" fill="none">
  <g clip-path="url(#clip0_902_18)">
    <g filter="url(#filter0_d_902_18)">
      <path d="M38.2613 15.3752L33.6526 17.9297C33.7496 18.6059 33.8039 19.2954 33.8173 19.9957L39.0007 21.3882L33.6599 22.6223C33.5969 23.07 33.5159 23.5111 33.4181 23.946L38.262 26.6307L32.6065 26.5373C32.3801 27.0932 32.127 27.6357 31.8437 28.1603L35.8893 32.2061L30.3014 30.5055C30.0757 30.7935 29.8426 31.0749 29.5989 31.3468L32.6218 36.3776L27.5008 33.3139C27.0903 33.6373 26.6644 33.9421 26.2237 34.2266L27.7727 40.0225L23.6306 35.5964C23.342 35.7174 23.0487 35.8276 22.752 35.9325L22.8525 42.005L19.8791 36.6642C19.4003 36.741 18.9134 36.7959 18.4212 36.8313L15.4437 36.7852C15.1417 36.7531 14.8423 36.7123 14.5457 36.6642L11.6727 35.9319C11.1966 35.7635 10.7311 35.5737 10.2757 35.3646L7.7336 33.9133C7.45768 33.7215 7.18779 33.5211 6.92459 33.3133L4.8265 31.3468C4.45349 30.9305 4.10257 30.4955 3.77308 30.0432L2.32254 27.6524C2.14172 27.2876 1.97431 26.9154 1.8196 26.5366L1.00794 23.9454C0.867309 23.32 0.758146 22.6818 0.690511 22.0317L0.624878 19.4164C0.651672 18.9145 0.702564 18.4188 0.772879 17.9297L1.32337 15.4607C1.54235 14.7458 1.81023 14.0529 2.11963 13.382L3.30162 11.2498C3.62174 10.7607 3.96528 10.289 4.33428 9.83801L5.96028 8.11541C6.56301 7.56147 7.20526 7.05031 7.885 6.58928L9.87996 5.43128C10.4526 5.14935 11.0438 4.90009 11.6513 4.68492L13.8398 4.07225C14.6689 3.90184 15.5201 3.79289 16.3893 3.7502L18.6509 3.79496C19.3078 3.85105 19.9547 3.9413 20.5876 4.07159L22.8539 0.000976562L22.7762 4.6836C23.5764 4.9676 24.3499 5.30901 25.0886 5.70659L28.4424 2.36835L27.044 6.94343C27.5403 7.30759 28.0158 7.69847 28.4678 8.11408L32.6232 5.62841L30.0938 9.83735C30.588 10.442 31.0407 11.0808 31.4466 11.7516L36.2764 10.4667L32.5542 13.9346C32.7619 14.4317 32.9453 14.9409 33.1047 15.4607L38.2613 15.3752Z" fill="#F0E968"/>
      <path d="M32.7485 14.3831C32.3608 13.6053 31.894 12.8524 31.3429 12.1374C26.8151 6.2654 18.4226 5.11344 12.4764 9.49536C17.0617 7.33579 22.653 8.443 26.0396 12.4053C22.9356 10.046 18.519 9.94704 15.2784 12.4347C14.7092 12.8717 14.2102 13.3649 13.779 13.8994C13.8459 13.8439 13.9076 13.7845 13.9772 13.731C16.9928 11.4164 21.3176 11.979 23.6381 14.9872C25.9585 17.9954 25.394 22.3111 22.3791 24.6264C19.3963 26.9163 15.1344 26.3864 12.7972 23.4624C13.0396 23.9335 13.3256 24.3905 13.6604 24.8248C16.6426 28.6923 22.2016 29.4153 26.0778 26.4399C26.6095 26.0316 27.0803 25.5732 27.4915 25.0794C26.7461 26.512 25.6853 27.8097 24.3185 28.8587C19.6286 32.4589 13.0303 31.8655 9.05029 27.6679C9.2726 28.0188 9.51103 28.3635 9.76956 28.699C14.3529 34.6432 22.8981 35.7543 28.855 31.1812C30.0283 30.2806 31.0101 29.2255 31.8009 28.0688C30.7039 30.1343 29.161 32.0058 27.1827 33.5246C19.7914 39.1988 9.18956 37.8197 3.5026 30.445C-2.18438 23.0702 -0.802147 12.4922 6.58917 6.81801C13.9805 1.14375 24.5823 2.52288 30.2693 9.89765C31.3482 11.2955 32.1712 12.8096 32.7485 14.3831Z" fill="#7B87C2"/>
      <path d="M23.2981 14.3287C26.0224 17.0469 26.0224 21.454 23.2981 24.1722C20.5738 26.8904 16.1568 26.8904 13.4325 24.1722C10.7082 21.454 10.7082 17.0469 13.4325 14.3287C16.1568 11.6105 20.5738 11.6105 23.2981 14.3287Z" fill="#F5F4F5"/>
    </g>
  </g>
  <defs>
    <filter id="filter0_d_902_18" x="-4.00098" y="0.000976562" width="47.0017" height="50.0042" filterUnits="userSpaceOnUse" color-interpolation-filters="sRGB">
      <feFlood flood-opacity="0" result="BackgroundImageFix"/>
      <feColorMatrix in="SourceAlpha" type="matrix" values="0 0 0 0 0 0 0 0 0 0 0 0 0 0 0 0 0 0 127 0" result="hardAlpha"/>
      <feOffset dy="4"/>
      <feGaussianBlur stdDeviation="2"/>
      <feComposite in2="hardAlpha" operator="out"/>
      <feColorMatrix type="matrix" values="0 0 0 0 0 0 0 0 0 0 0 0 0 0 0 0 0 0 0.25 0"/>
      <feBlend mode="normal" in2="BackgroundImageFix" result="effect1_dropShadow_902_18"/>
      <feBlend mode="normal" in="SourceGraphic" in2="effect1_dropShadow_902_18" result="shape"/>
    </filter>
    <clipPath id="clip0_902_18">
      <rect width="39" height="42" fill="white"/>
    </clipPath>
  </defs>
</svg>